<svg
  class="loading-svg"
  xmlns="http://www.w3.org/2000/svg"
  xmlns:xlink="http://www.w3.org/1999/xlink"
  width="80vw"
  height="129px"
  viewBox="0 0 480 129"
  version="1.1"
  style="background: #000;"
>
  <g id="Page-2" stroke="none" stroke-width="1" fill="none" fill-rule="evenodd" >
    <g id="loading-lujing-pic" transform="translate(7.9107, 17)" >
      <path
        d="M7.36868778,30.1548894 L7.08933913,97.2417007 C16.5892463,97.2094857 26.1803714,97.1339375 35.8627146,97.0150561 C41.9270325,96.8471712 54.4722326,93.5445601 54.5834564,81.7695321 C54.6946801,69.994504 44.9705614,65.3600604 33.9594767,65.444962 C26.6187535,65.501563 17.9705022,65.5450618 8.01472287,65.5754583 C19.0733776,65.5155485 27.7046131,65.4400003 33.9084293,65.3488136 C42.4485093,65.2052127 50.1809377,57.8553487 50.1103727,46.9884998 C50.0398077,36.121651 40.8388758,29.8327323 34.5490152,29.7073285 C32.5870137,29.7029604 21.0706753,29.8521474 0,30.1548894 C5.09708784,30.1511647 7.5533171,30.1511647 7.36868778,30.1548894 Z"
        id="loading-word-1"
        class="LoAdInG"
        stroke="#FFFFFF"
        stroke-width="15"
      ></path>
      <g class="LoAdInG" id="loading-word-2"  >
        <!-- <line
            x1="77.3120388"
            y1="29.199399"
            x2="77.3824256"
            y2="30.1790843"
            id="路径-2"
            stroke="#FFFFFF"
            stroke-width="20"
            stroke-linecap="round"
          ></line> -->
        <line
          x1="77.3442411"
          y1="49.4278345"
          x2="77.3291583"
          y2="105.147322"
          stroke="#FFFFFF"
          stroke-width="18"
        ></line>
      </g>
      <polyline
        id="loading-word-3"
        class="LoAdInG"
        stroke="#FFFFFF"
        stroke-width="18"
        points="108.603004 105.222736 108.603004 49.5032485 150.458517 85.5044773 150.195645 30.1790843"
      ></polyline>
      <path
        d="M221.557443,43.4722796 C214.959791,39.1576385 209.01884,36.9694342 203.73459,36.9076665 C188.954873,37.1489914 174.970237,48.5092196 175.472279,69.370181 C176.677467,90.6706985 195.27457,97.1849606 205.865575,97.070119 C212.926245,96.9935579 218.253589,94.7385582 221.847607,90.30512 L221.716171,69.241618 L199.994053,69.1870326"
        id="loading-word-4"
        class="LoAdInG"
        stroke="#FFFFFF"
        stroke-width="16"
      ></path>
      <path
        d="M273.094249,43.369344 C288.800719,43.5083115 299.310056,57.5408834 299.437705,70.657276 C299.565354,83.7736685 287.202907,97.0340591 273.995337,97.0714829 C260.787767,97.1082589 247.592144,87.638348 246.732557,72.5279921 C245.872971,57.4176362 257.387779,43.2303766 273.094249,43.369344 Z"
        id="loading-word-5"
        class="LoAdInG"
        stroke="#FFFFFF"
        stroke-width="16"
      ></path>
      <path
        d="M332.56964,6.28793581 C337.800005,1.84628897 343.497495,0.0828149021 352.167779,0 C360.838063,-0.0810626706 376.24183,5.57126334 376.221526,22.5304168 C376.201223,39.4895702 358.50027,46.4533045 351.48039,45.9200447 C347.848333,45.6441383 339.134129,47.386873 332.477548,52.161574 C326.26858,56.6152069 322.053425,64.2455965 322.370827,72.5060939 C322.386996,84.3795259 335.991803,94.4573721 351.353787,94.2528275 C366.71577,94.048283 377.873945,83.4443107 377.939796,71.315195 C377.980907,63.5872052 373.63285,56.6026982 366.242728,51.5648536 C362.034019,48.6957778 357.913752,46.5714195 351.503216,46.165433 C333.836344,45.0465697 325.460008,31.041222 325.373456,22.9228013 C325.286905,14.8043807 327.339276,10.7295827 332.56964,6.28793581 Z"
        id="loading-word-6"
        class="LoAdInG"
        stroke="#FFE147"
        stroke-width="20"
      ></path>
      <path
        d="M396.971452,3.37161833 L456.082715,3.39275989 C456.190185,6.31945603 456.321439,9.36119748 456.476477,12.5179843 C442.797361,34.3804679 409.480911,89.4991485 409.635244,102.224251"
        id="loading-word-7"
        class="LoAdInG"
        stroke="#FFE147"
        stroke-width="21"
      ></path>
    </g>
  </g>
</svg>